<svg xmlns="http://www.w3.org/2000/svg" viewBox="0 0 280.67 512"><defs><style>.cls-1{fill:#fff; stroke:#24bddf; }</style></defs><title>clear</title><path class="cls-1" d="M138.34,263.67H179V318H138.34Z" transform="translate(-3.34 0)" stroke="#24bddf" fill="#24bddf"/><path d="M248.17,308H194V184.67a10,10,0,1,0-20,0v69H150V20h24V94.67a10,10,0,1,0,20,0V10A10,10,0,0,0,184,0H140a10,10,0,0,0-10,10V308H75.84A35.87,35.87,0,0,0,40,343.83v26.36A243.79,243.79,0,0,1,4.79,496.81,10,10,0,0,0,13.34,512h224a10,10,0,0,0,8.54-4.81,263.79,263.79,0,0,0,38.12-137V343.83A35.87,35.87,0,0,0,248.17,308ZM150,273.67h24V308H150ZM75.84,328H248.17A15.85,15.85,0,0,1,264,343.83v16.29H60V343.83A15.85,15.85,0,0,1,75.84,328ZM231.63,492H179.74a265,265,0,0,0,20.34-52.28,10,10,0,1,0-19.29-5.26A243.92,243.92,0,0,1,157,492H105.07a264.83,264.83,0,0,0,20.35-52.28,10,10,0,0,0-19.3-5.26A243.89,243.89,0,0,1,82.29,492H30.42a264,264,0,0,0,29.4-111.81h204A243.6,243.6,0,0,1,231.63,492Z" transform="translate(-3.34 0)" stroke="#24bddf" fill="#24bddf"/><path d="M180.67,129.67a10,10,0,1,0,7.07,2.93A10,10,0,0,0,180.67,129.67Z" transform="translate(-3.34 0)" stroke="#24bddf" fill="#24bddf"/></svg>