<?xml version="1.0" encoding="iso-8859-1"?>
<!-- Generator: Adobe Illustrator 19.0.0, SVG Export Plug-In . SVG Version: 6.00 Build 0)  -->
<svg version="1.1" id="Capa_1" xmlns="http://www.w3.org/2000/svg" xmlns:xlink="http://www.w3.org/1999/xlink" x="0px" y="0px"
	 viewBox="0 0 464.457 464.457" style="enable-background:new 0 0 464.457 464.457;" xml:space="preserve">
<linearGradient id="SVGID_1_" gradientUnits="userSpaceOnUse" x1="-14.3567" y1="593.7619" x2="-14.3567" y2="504.7619" gradientTransform="matrix(5.2245 0 0 -5.2245 307.2349 3102.1028)">
	<stop  offset="0" style="stop-color:#00EFD1"/>
	<stop  offset="1" style="stop-color:#00ACEA"/>
</linearGradient>
<path style="fill:url(#SVGID_1_);" d="M377.514,445.127l-40.751-150.988c-1.045-41.796-26.645-77.845-63.216-93.518V15.673
	C273.546,6.792,266.755,0,257.873,0h-51.2c-8.882,0-15.673,6.792-15.673,15.673v184.424c-36.571,15.673-62.171,51.722-63.216,93.518
	L87.032,444.604c-1.045,4.702-0.522,9.927,2.612,13.584c3.135,3.657,7.314,6.269,12.539,6.269h260.18
	c4.702,0,9.404-2.09,12.539-6.269C377.514,455.053,378.559,449.829,377.514,445.127z M222.346,31.347h19.853v160.914
	c-3.135-0.522-6.792-0.522-9.927-0.522c-3.135,0-6.792,0-9.927,0.522C222.346,192.261,222.346,31.347,222.346,31.347z
	 M232.273,223.086c33.437,0,62.171,22.988,70.531,53.812H161.742C170.101,246.073,198.836,223.086,232.273,223.086z M308.55,433.633
	l-9.927-73.143c-1.045-8.359-8.882-14.629-17.763-13.584c-8.359,1.045-14.629,8.882-13.584,17.763l9.404,68.963h-28.735v-70.531
	c0-8.882-6.792-15.673-15.673-15.673s-15.673,6.792-15.673,15.673v70.531h-29.257l9.404-68.963
	c1.045-8.359-4.702-16.718-13.584-17.763c-8.359-1.045-16.718,4.702-17.763,13.584l-9.927,73.143h-32.914l33.959-125.388h151.51
	l33.959,125.388H308.55z"/>
<g>
</g>
<g>
</g>
<g>
</g>
<g>
</g>
<g>
</g>
<g>
</g>
<g>
</g>
<g>
</g>
<g>
</g>
<g>
</g>
<g>
</g>
<g>
</g>
<g>
</g>
<g>
</g>
<g>
</g>
</svg>
