<svg width="22" height="22" viewBox="0 0 22 22" fill="none" xmlns="http://www.w3.org/2000/svg">
<path d="M20.7098 0.502343C18.6167 0.648125 14.4566 1.17875 11.8884 3.10812C11.7112 3.24125 11.6107 3.47797 11.6107 3.72547V20.7819C11.6107 21.3233 12.0931 21.6655 12.4999 21.4142C15.1422 19.782 18.9635 19.3367 20.853 19.2148C21.4981 19.1731 21.9996 18.5384 21.9996 17.7777V1.94141C22 1.11125 21.4133 0.453593 20.7098 0.502343ZM10.1112 3.10812C7.5434 1.17875 3.38326 0.648593 1.29021 0.502343C0.586667 0.453593 0 1.11125 0 1.94141V17.7781C0 18.5394 0.501493 19.1741 1.1466 19.2153C3.03684 19.3372 6.8601 19.783 9.5024 21.4161C9.90802 21.6669 10.3889 21.3252 10.3889 20.7852V3.71703C10.3889 3.46906 10.2888 3.24172 10.1112 3.10812Z" fill="white"/>
</svg>
