<svg width="22" height="24" viewBox="0 0 22 24" fill="none" xmlns="http://www.w3.org/2000/svg">
<path d="M11 0.375C5.11513 0.375 0.34375 5.58202 0.34375 12C0.34375 18.4217 5.11513 23.625 11 23.625C16.8849 23.625 21.6562 18.4217 21.6562 12C21.6562 5.58202 16.8849 0.375 11 0.375ZM11 5.53125C11.9967 5.53125 12.8047 6.41269 12.8047 7.5C12.8047 8.58731 11.9967 9.46875 11 9.46875C10.0033 9.46875 9.19531 8.58731 9.19531 7.5C9.19531 6.41269 10.0033 5.53125 11 5.53125ZM13.4062 17.4375C13.4062 17.7481 13.1754 18 12.8906 18H9.10938C8.82462 18 8.59375 17.7481 8.59375 17.4375V16.3125C8.59375 16.0019 8.82462 15.75 9.10938 15.75H9.625V12.75H9.10938C8.82462 12.75 8.59375 12.4981 8.59375 12.1875V11.0625C8.59375 10.7519 8.82462 10.5 9.10938 10.5H11.8594C12.1441 10.5 12.375 10.7519 12.375 11.0625V15.75H12.8906C13.1754 15.75 13.4062 16.0019 13.4062 16.3125V17.4375Z" fill="#24BDDF"/>
</svg>
